<?xml version="1.0" encoding="utf-8"?>
<!-- Generator: Adobe Illustrator 23.0.2, SVG Export Plug-In . SVG Version: 6.00 Build 0)  -->
<svg version="1.1" id="Layer_1" xmlns="http://www.w3.org/2000/svg" xmlns:xlink="http://www.w3.org/1999/xlink" x="0px" y="0px"
	 viewBox="0 0 693 242" style="enable-background:new 0 0 693 242;" xml:space="preserve">
<style type="text/css">
	.st0{fill:#F3F3F3;}
	.st1{font-family:'FormaDJRDisplay-Regular';}
	.st2{font-size:150px;}
</style>
<path class="st0" d="M97.14,170.29c-15.3,0.15-22.8,11.25-22.8,30.6c0,19.35,7.65,30.15,22.8,30.15c15.15,0,22.5-10.8,22.5-30.15
	C119.64,181.54,112.14,170.29,97.14,170.29z M97.14,170.29c-15.3,0.15-22.8,11.25-22.8,30.6c0,19.35,7.65,30.15,22.8,30.15
	c15.15,0,22.5-10.8,22.5-30.15C119.64,181.54,112.14,170.29,97.14,170.29z M97.14,170.29c-15.3,0.15-22.8,11.25-22.8,30.6
	c0,19.35,7.65,30.15,22.8,30.15c15.15,0,22.5-10.8,22.5-30.15C119.64,181.54,112.14,170.29,97.14,170.29z M248.79,170.29
	c-15.3,0.15-22.8,11.25-22.8,30.6c0,19.35,7.65,30.15,22.8,30.15c15.14,0,22.49-10.8,22.49-30.15
	C271.28,181.54,263.78,170.29,248.79,170.29z M248.79,170.29c-15.3,0.15-22.8,11.25-22.8,30.6c0,19.35,7.65,30.15,22.8,30.15
	c15.14,0,22.49-10.8,22.49-30.15C271.28,181.54,263.78,170.29,248.79,170.29z M97.14,170.29c-15.3,0.15-22.8,11.25-22.8,30.6
	c0,19.35,7.65,30.15,22.8,30.15c15.15,0,22.5-10.8,22.5-30.15C119.64,181.54,112.14,170.29,97.14,170.29z M97.14,170.29
	c-15.3,0.15-22.8,11.25-22.8,30.6c0,19.35,7.65,30.15,22.8,30.15c15.15,0,22.5-10.8,22.5-30.15
	C119.64,181.54,112.14,170.29,97.14,170.29z M248.79,170.29c-15.3,0.15-22.8,11.25-22.8,30.6c0,19.35,7.65,30.15,22.8,30.15
	c15.14,0,22.49-10.8,22.49-30.15C271.28,181.54,263.78,170.29,248.79,170.29z M443.18,170.29c-15.3,0.15-22.8,11.25-22.8,30.6
	c0,19.35,7.65,30.15,22.8,30.15c15.15,0,22.5-10.8,22.5-30.15C465.68,181.54,458.18,170.29,443.18,170.29z M443.18,170.29
	c-15.3,0.15-22.8,11.25-22.8,30.6c0,19.35,7.65,30.15,22.8,30.15c15.15,0,22.5-10.8,22.5-30.15
	C465.68,181.54,458.18,170.29,443.18,170.29z M248.79,170.29c-15.3,0.15-22.8,11.25-22.8,30.6c0,19.35,7.65,30.15,22.8,30.15
	c15.14,0,22.49-10.8,22.49-30.15C271.28,181.54,263.78,170.29,248.79,170.29z M97.14,170.29c-15.3,0.15-22.8,11.25-22.8,30.6
	c0,19.35,7.65,30.15,22.8,30.15c15.15,0,22.5-10.8,22.5-30.15C119.64,181.54,112.14,170.29,97.14,170.29z M97.14,170.29
	c-15.3,0.15-22.8,11.25-22.8,30.6c0,19.35,7.65,30.15,22.8,30.15c15.15,0,22.5-10.8,22.5-30.15
	C119.64,181.54,112.14,170.29,97.14,170.29z M248.79,170.29c-15.3,0.15-22.8,11.25-22.8,30.6c0,19.35,7.65,30.15,22.8,30.15
	c15.14,0,22.49-10.8,22.49-30.15C271.28,181.54,263.78,170.29,248.79,170.29z M443.18,170.29c-15.3,0.15-22.8,11.25-22.8,30.6
	c0,19.35,7.65,30.15,22.8,30.15c15.15,0,22.5-10.8,22.5-30.15C465.68,181.54,458.18,170.29,443.18,170.29z M443.18,170.29
	c-15.3,0.15-22.8,11.25-22.8,30.6c0,19.35,7.65,30.15,22.8,30.15c15.15,0,22.5-10.8,22.5-30.15
	C465.68,181.54,458.18,170.29,443.18,170.29z M248.79,170.29c-15.3,0.15-22.8,11.25-22.8,30.6c0,19.35,7.65,30.15,22.8,30.15
	c15.14,0,22.49-10.8,22.49-30.15C271.28,181.54,263.78,170.29,248.79,170.29z M97.14,170.29c-15.3,0.15-22.8,11.25-22.8,30.6
	c0,19.35,7.65,30.15,22.8,30.15c15.15,0,22.5-10.8,22.5-30.15C119.64,181.54,112.14,170.29,97.14,170.29z M97.14,170.29
	c-15.3,0.15-22.8,11.25-22.8,30.6c0,19.35,7.65,30.15,22.8,30.15c15.15,0,22.5-10.8,22.5-30.15
	C119.64,181.54,112.14,170.29,97.14,170.29z M248.79,170.29c-15.3,0.15-22.8,11.25-22.8,30.6c0,19.35,7.65,30.15,22.8,30.15
	c15.14,0,22.49-10.8,22.49-30.15C271.28,181.54,263.78,170.29,248.79,170.29z M443.18,170.29c-15.3,0.15-22.8,11.25-22.8,30.6
	c0,19.35,7.65,30.15,22.8,30.15c15.15,0,22.5-10.8,22.5-30.15C465.68,181.54,458.18,170.29,443.18,170.29z M443.18,170.29
	c-15.3,0.15-22.8,11.25-22.8,30.6c0,19.35,7.65,30.15,22.8,30.15c15.15,0,22.5-10.8,22.5-30.15
	C465.68,181.54,458.18,170.29,443.18,170.29z M248.79,170.29c-15.3,0.15-22.8,11.25-22.8,30.6c0,19.35,7.65,30.15,22.8,30.15
	c15.14,0,22.49-10.8,22.49-30.15C271.28,181.54,263.78,170.29,248.79,170.29z M97.14,170.29c-15.3,0.15-22.8,11.25-22.8,30.6
	c0,19.35,7.65,30.15,22.8,30.15c15.15,0,22.5-10.8,22.5-30.15C119.64,181.54,112.14,170.29,97.14,170.29z M0,0v242h692V0H0z
	 M62.04,238.24c0,0.6-0.45,1.05-1.05,1.05H1.14c-0.6,0-1.05-0.45-1.05-1.05l0.45-53.85l-0.45-49.05c0-0.6,0.45-1.05,1.05-1.05h12
	c0.6,0,1.05,0.45,1.05,1.05l-0.3,48.3l0.3,44.4h46.8c0.6,0,1.05,0.45,1.05,1.05V238.24z M97.14,241.09c-23.4,0-36.6-15.9-36.6-40.2
	c0-24.45,13.2-40.65,36.6-40.65c23.55,0,36.6,16.05,36.6,40.35C133.74,224.89,120.69,241.09,97.14,241.09z M174.39,241.09
	c-23.1,0-36.15-15.9-36.15-40.2c0-24.3,13.05-40.65,36.45-40.65c19.2,0,31.05,11.1,32.55,27.45c0.15,0.6-0.3,1.05-0.9,1.05h-10.65
	c-0.6,0-1.05-0.45-1.2-1.05c-1.8-11.25-9.15-17.25-19.8-17.25c-15.3,0-22.5,11.1-22.5,30.3c0,19.65,7.2,30.15,22.5,30.3
	c12,0,19.5-7.2,20.55-19.8c0.15-0.6,0.6-1.05,1.2-1.05h10.8c0.6,0,1.05,0.45,1.05,1.05C206.79,228.49,194.34,241.09,174.39,241.09z
	 M248.79,241.09c-23.4,0-36.6-15.9-36.6-40.2c0-24.45,13.2-40.65,36.6-40.65c23.54,0,36.59,16.05,36.59,40.35
	C285.38,224.89,272.33,241.09,248.79,241.09z M399.23,239.29h-11.85c-0.6,0-1.05-0.45-1.05-1.05l0.3-29.1v-17.7
	c0-14.4-5.85-20.25-14.85-20.25c-8.25,0-15,7.35-18.3,20.1v17.85l0.3,29.1c0,0.6-0.45,1.05-1.05,1.05h-11.85
	c-0.6,0-1.05-0.45-1.05-1.05l0.3-29.1v-17.7c0-14.4-5.85-20.25-14.85-20.25c-8.99,0-16.19,8.55-19.19,23.4v14.55l0.3,29.1
	c0,0.6-0.45,1.05-1.05,1.05h-12c-0.6,0-1.05-0.45-1.05-1.05l0.45-29.1l-0.3-46.05c0-0.6,0.45-1.05,1.05-1.05h11.25
	c0.6,0,1.05,0.45,1.05,1.05l-0.3,12c4.8-8.1,12.3-14.85,23.84-14.85c10.95,0,18.9,5.1,22.2,16.2c5.55-10.5,13.5-16.2,24.3-16.2
	c15.15,0,24.15,9.6,24.15,30.6v18.3l0.3,29.1C400.28,238.84,399.83,239.29,399.23,239.29z M443.18,241.09
	c-23.4,0-36.6-15.9-36.6-40.2c0-24.45,13.2-40.65,36.6-40.65c23.55,0,36.6,16.05,36.6,40.35
	C479.78,224.89,466.73,241.09,443.18,241.09z M523.73,171.64c0,0.6-0.45,1.05-1.05,1.05h-18.15l0.15,45c0,9.3,3.15,12.15,9.6,12.15
	c3.15,0,6.15-0.45,8.25-1.05c0.6-0.15,1.05,0.3,1.05,0.75v7.8c0,0.6-0.45,1.2-1.05,1.35c-3.15,0.9-7.05,1.95-10.65,1.95
	c-11.25,0-20.85-5.85-20.85-22.65l0.15-45.3h-9c-0.6,0-1.05-0.45-1.05-1.05v-8.55c0-0.6,0.45-1.05,1.05-1.05h9l-0.15-18.3
	c0-0.6,0.45-1.05,1.05-1.05h11.7c0.6,0,1.05,0.45,1.05,1.05l-0.3,18.3h18.15c0.6,0,1.05,0.45,1.05,1.05V171.64z M544.13,238.24
	c0,0.6-0.45,1.05-1.05,1.05h-11.85c-0.6,0-1.05-0.45-1.05-1.05l0.3-38.7l-0.3-36.45c0-0.6,0.45-1.05,1.05-1.05h11.85
	c0.6,0,1.05,0.45,1.05,1.05l-0.3,36.3L544.13,238.24z M544.28,152.44c0,0.6-0.45,1.05-1.05,1.05h-11.85c-0.6,0-1.05-0.45-1.05-1.05
	v-12.9c0-0.6,0.45-1.05,1.05-1.05h11.85c0.6,0,1.05,0.45,1.05,1.05V152.44z M592.13,239.44h-14.1c-0.6,0-1.2-0.45-1.35-1.05
	l-27.9-75.3c-0.15-0.6,0.15-1.05,0.75-1.05h12.75c0.6,0,1.2,0.45,1.35,1.05l21.75,64.5l22.5-64.5c0.15-0.6,0.75-1.05,1.35-1.05h11.1
	c0.6,0,0.9,0.45,0.75,1.05l-27.6,75.3C593.33,238.99,592.73,239.44,592.13,239.44z M689.93,202.54h-57.45
	c0.45,18.6,8.25,28.5,23.4,28.5c11.55,0,18.3-6.15,20.55-17.55c0.15-0.6,0.6-1.05,1.2-1.05h11.1c0.6,0,1.05,0.45,0.9,1.05
	c-2.25,15.9-13.95,27.6-33.9,27.6c-24,0-36.9-16.65-36.9-40.2c0-24.15,13.8-40.65,36.15-40.65c22.5,0,35.7,15.45,36,41.25
	C690.98,202.09,690.53,202.54,689.93,202.54z M655.13,170.14c-12.75,0-20.25,8.25-22.2,22.8h43.35
	C675.83,180.64,668.78,170.14,655.13,170.14z M443.18,170.29c-15.3,0.15-22.8,11.25-22.8,30.6c0,19.35,7.65,30.15,22.8,30.15
	c15.15,0,22.5-10.8,22.5-30.15C465.68,181.54,458.18,170.29,443.18,170.29z M248.79,170.29c-15.3,0.15-22.8,11.25-22.8,30.6
	c0,19.35,7.65,30.15,22.8,30.15c15.14,0,22.49-10.8,22.49-30.15C271.28,181.54,263.78,170.29,248.79,170.29z M97.14,170.29
	c-15.3,0.15-22.8,11.25-22.8,30.6c0,19.35,7.65,30.15,22.8,30.15c15.15,0,22.5-10.8,22.5-30.15
	C119.64,181.54,112.14,170.29,97.14,170.29z M97.14,170.29c-15.3,0.15-22.8,11.25-22.8,30.6c0,19.35,7.65,30.15,22.8,30.15
	c15.15,0,22.5-10.8,22.5-30.15C119.64,181.54,112.14,170.29,97.14,170.29z M248.79,170.29c-15.3,0.15-22.8,11.25-22.8,30.6
	c0,19.35,7.65,30.15,22.8,30.15c15.14,0,22.49-10.8,22.49-30.15C271.28,181.54,263.78,170.29,248.79,170.29z M443.18,170.29
	c-15.3,0.15-22.8,11.25-22.8,30.6c0,19.35,7.65,30.15,22.8,30.15c15.15,0,22.5-10.8,22.5-30.15
	C465.68,181.54,458.18,170.29,443.18,170.29z M443.18,170.29c-15.3,0.15-22.8,11.25-22.8,30.6c0,19.35,7.65,30.15,22.8,30.15
	c15.15,0,22.5-10.8,22.5-30.15C465.68,181.54,458.18,170.29,443.18,170.29z M248.79,170.29c-15.3,0.15-22.8,11.25-22.8,30.6
	c0,19.35,7.65,30.15,22.8,30.15c15.14,0,22.49-10.8,22.49-30.15C271.28,181.54,263.78,170.29,248.79,170.29z M97.14,170.29
	c-15.3,0.15-22.8,11.25-22.8,30.6c0,19.35,7.65,30.15,22.8,30.15c15.15,0,22.5-10.8,22.5-30.15
	C119.64,181.54,112.14,170.29,97.14,170.29z M97.14,170.29c-15.3,0.15-22.8,11.25-22.8,30.6c0,19.35,7.65,30.15,22.8,30.15
	c15.15,0,22.5-10.8,22.5-30.15C119.64,181.54,112.14,170.29,97.14,170.29z M248.79,170.29c-15.3,0.15-22.8,11.25-22.8,30.6
	c0,19.35,7.65,30.15,22.8,30.15c15.14,0,22.49-10.8,22.49-30.15C271.28,181.54,263.78,170.29,248.79,170.29z M443.18,170.29
	c-15.3,0.15-22.8,11.25-22.8,30.6c0,19.35,7.65,30.15,22.8,30.15c15.15,0,22.5-10.8,22.5-30.15
	C465.68,181.54,458.18,170.29,443.18,170.29z M443.18,170.29c-15.3,0.15-22.8,11.25-22.8,30.6c0,19.35,7.65,30.15,22.8,30.15
	c15.15,0,22.5-10.8,22.5-30.15C465.68,181.54,458.18,170.29,443.18,170.29z M248.79,170.29c-15.3,0.15-22.8,11.25-22.8,30.6
	c0,19.35,7.65,30.15,22.8,30.15c15.14,0,22.49-10.8,22.49-30.15C271.28,181.54,263.78,170.29,248.79,170.29z M97.14,170.29
	c-15.3,0.15-22.8,11.25-22.8,30.6c0,19.35,7.65,30.15,22.8,30.15c15.15,0,22.5-10.8,22.5-30.15
	C119.64,181.54,112.14,170.29,97.14,170.29z M97.14,170.29c-15.3,0.15-22.8,11.25-22.8,30.6c0,19.35,7.65,30.15,22.8,30.15
	c15.15,0,22.5-10.8,22.5-30.15C119.64,181.54,112.14,170.29,97.14,170.29z M248.79,170.29c-15.3,0.15-22.8,11.25-22.8,30.6
	c0,19.35,7.65,30.15,22.8,30.15c15.14,0,22.49-10.8,22.49-30.15C271.28,181.54,263.78,170.29,248.79,170.29z M248.79,170.29
	c-15.3,0.15-22.8,11.25-22.8,30.6c0,19.35,7.65,30.15,22.8,30.15c15.14,0,22.49-10.8,22.49-30.15
	C271.28,181.54,263.78,170.29,248.79,170.29z M97.14,170.29c-15.3,0.15-22.8,11.25-22.8,30.6c0,19.35,7.65,30.15,22.8,30.15
	c15.15,0,22.5-10.8,22.5-30.15C119.64,181.54,112.14,170.29,97.14,170.29z M97.14,170.29c-15.3,0.15-22.8,11.25-22.8,30.6
	c0,19.35,7.65,30.15,22.8,30.15c15.15,0,22.5-10.8,22.5-30.15C119.64,181.54,112.14,170.29,97.14,170.29z M97.14,170.29
	c-15.3,0.15-22.8,11.25-22.8,30.6c0,19.35,7.65,30.15,22.8,30.15c15.15,0,22.5-10.8,22.5-30.15
	C119.64,181.54,112.14,170.29,97.14,170.29z"/>
<text transform="matrix(1 0 0 1 -5.2529 105.25)" class="st1 st2">Hello</text>
</svg>
